# xmcd
# 
# Track frame offsets:
#	150
#	24800
#	51847
#	78245
#	105097
#	119232
#	133242
#	153910
#	167665
#	180615
#	197745
#
# Disc length: 2695 seconds
#
# Revision: 1
# Processed by: cddbd v1.4PL0 Copyright (c) Steve Scherf et al.
# Submitted via: Audio-CD-Archiv 2.10.441
#
DISCID=860a850b
DTITLE=Taff - Heiss
DYEAR=1900
DGENRE=blues
TTITLE0=Heiss
TTITLE1=De Niid
TTITLE2=Glattiis
TTITLE3=Wescht-Wind
TTITLE4=Mängisch
TTITLE5=Füül Mi Guet
TTITLE6=Looslaa
TTITLE7=Chranki Stadt
TTITLE8=Heimet
TTITLE9=Ferie
TTITLE10=Stress
EXTD=
EXTT0=
EXTT1=
EXTT2=
EXTT3=
EXTT4=
EXTT5=
EXTT6=
EXTT7=
EXTT8=
EXTT9=
EXTT10=
PLAYORDER=
